<svg width="30.000000" height="30.000000" viewBox="0 0 30 30" fill="none" xmlns="http://www.w3.org/2000/svg" xmlns:xlink="http://www.w3.org/1999/xlink">
	<desc>
			Created with Pixso.
	</desc>
	<defs>
		<clipPath id="clip44_43">
			<rect width="30.000000" height="30.000000" fill="white" fill-opacity="0"/>
		</clipPath>
	</defs>
	<rect width="30.000000" height="30.000000" fill="#FFFFFF" fill-opacity="0"/>
	<g clip-path="url(#clip44_43)">
		<path d="M14.9941 0C8.36475 0 2.96875 5.39624 2.96875 12.0251C2.96875 12.7799 3.03809 13.5409 3.18262 14.283C3.18896 14.327 3.21387 14.4591 3.26416 14.6855C3.44678 15.4968 3.71729 16.2957 4.06934 17.0566C5.36475 20.1069 8.21387 24.7925 14.4658 29.8113C14.623 29.9371 14.8115 30 15 30C15.189 30 15.3774 29.9371 15.5347 29.8113C21.7803 24.7925 24.6353 20.1069 25.9312 17.0566C26.2832 16.2957 26.5537 15.5032 26.7358 14.6855C26.7861 14.4591 26.8115 14.327 26.8179 14.283C26.9561 13.5409 27.0317 12.7799 27.0317 12.0251C27.019 5.39624 21.623 0 14.9941 0ZM25.1323 13.9874C25.1323 14 25.126 14.0126 25.126 14.0251C25.1196 14.0566 25.1006 14.151 25.0693 14.2957C25.0693 14.3019 25.0693 14.3019 25.0693 14.3082C24.9121 15.0126 24.6792 15.6981 24.3711 16.3585C24.3647 16.3647 24.3647 16.3773 24.3589 16.3837C23.1826 19.1698 20.604 23.4214 14.9941 28.0566C9.38379 23.4214 6.80518 19.1698 5.62891 16.3837C5.62305 16.3773 5.62305 16.3647 5.6167 16.3585C5.31445 15.7043 5.08203 15.0126 4.91846 14.3082C4.91846 14.3019 4.91846 14.3019 4.91846 14.2957C4.88086 14.151 4.86816 14.0566 4.86182 14.0251C4.86182 14.0126 4.85547 14 4.85547 13.9811C4.72998 13.3334 4.66699 12.6792 4.66699 12.0189C4.66699 6.32703 9.30225 1.69177 14.9941 1.69177C20.6855 1.69177 25.3208 6.32703 25.3208 12.0189C25.3208 12.6855 25.2578 13.3459 25.1323 13.9874Z" fill="#000000" fill-opacity="1.000000" fill-rule="nonzero"/>
		<path d="M14.9937 4.52197C10.7861 4.52197 7.3584 7.94971 7.3584 12.1572C7.3584 16.3647 10.7861 19.7924 14.9937 19.7924C19.2012 19.7924 22.6289 16.3647 22.6289 12.1572C22.6289 7.94971 19.2012 4.52197 14.9937 4.52197ZM14.9937 18.0944C11.7168 18.0944 9.05664 15.4276 9.05664 12.1572C9.05664 8.88672 11.7231 6.22009 14.9937 6.22009C18.2642 6.22009 20.9307 8.88672 20.9307 12.1572C20.9307 15.4276 18.2705 18.0944 14.9937 18.0944Z" fill="#000000" fill-opacity="1.000000" fill-rule="nonzero"/>
	</g>
</svg>
